<svg xmlns="http://www.w3.org/2000/svg" xmlns:xlink="http://www.w3.org/1999/xlink" width="70" height="70" viewBox="0 0 70 70"><defs><linearGradient id="linear-gradient" x1="52.99" x2="-13.622" y1="93.043" y2="7.72" gradientUnits="userSpaceOnUse"><stop offset=".091" stop-color="#0b8fff"/><stop offset=".208" stop-color="#0d94f6"/><stop offset=".396" stop-color="#11a3de"/><stop offset=".633" stop-color="#18bbb7"/><stop offset=".871" stop-color="#21d789"/></linearGradient><linearGradient id="linear-gradient-2" x1="89.303" x2="22.691" y1="64.693" y2="-20.63" xlink:href="#linear-gradient"/><linearGradient id="linear-gradient-3" x1="39.293" x2="63.149" y1="52.758" y2="-11.394" gradientUnits="userSpaceOnUse"><stop offset=".123" stop-color="#21d789"/><stop offset=".132" stop-color="#27d788"/><stop offset=".216" stop-color="#59d87b"/><stop offset=".303" stop-color="#85d970"/><stop offset=".394" stop-color="#abda67"/><stop offset=".487" stop-color="#cadb5f"/><stop offset=".585" stop-color="#e1db59"/><stop offset=".688" stop-color="#f2dc55"/><stop offset=".802" stop-color="#fcdc53"/><stop offset=".946" stop-color="#ffdc52"/></linearGradient></defs><g><polygon fill="url(#linear-gradient)" points="0 70 70 70 34.844 34.906 0 0 0 70"/><polygon id="_Path_" fill="url(#linear-gradient-2)" points="70 70 34.844 34.906 70 0 70 70" data-name="&lt;Path&gt;"/><polygon id="_Path_2" fill="url(#linear-gradient-3)" points="50.884 50.884 34.844 34.906 70 0 50.884 50.884" data-name="&lt;Path&gt;"/></g><g><rect width="33" height="17" x="37" y="53" fill="#d99e2b"/><g><path d="M40.05563,66.966h7.19661V65.24271H41.745V62.2975h4.82041V60.57425H41.745V57.72294h5.43874V55.99969H40.05563Z"/><path d="M48.15627,66.966h1.86832l1.06757-2.6268h4.9082l1.05281,2.6268h1.9277l-4.5671-10.95841h-1.6904Zm3.60316-4.321,1.77945-4.35241L55.33309,62.645Z"/><path d="M59.87536,66.966h1.62869V63.44109h1.84026a3.50288,3.50288,0,0,0,3.70715-3.74426v-.03124a3.3623,3.3623,0,0,0-3.52185-3.6659H59.87536Zm1.62869-5.26364V57.75418h1.89333a1.80657,1.80657,0,0,1,1.99894,1.95836V59.744a1.86935,1.86935,0,0,1-1.99894,1.95836Z"/></g></g></svg>