<svg xmlns="http://www.w3.org/2000/svg" xmlns:xlink="http://www.w3.org/1999/xlink" width="555" height="143" viewBox="0 0 555 143"><defs><linearGradient id="linear-gradient" x1="105.979" x2="-27.244" y1="187.793" y2="17.148" gradientUnits="userSpaceOnUse"><stop offset=".091" stop-color="#0b8fff"/><stop offset=".208" stop-color="#0d94f6"/><stop offset=".396" stop-color="#11a3de"/><stop offset=".633" stop-color="#18bbb7"/><stop offset=".871" stop-color="#21d789"/></linearGradient><linearGradient id="linear-gradient-2" x1="178.605" x2="45.382" y1="131.094" y2="-39.551" xlink:href="#linear-gradient"/><linearGradient id="linear-gradient-3" x1="78.586" x2="126.297" y1="107.225" y2="-21.08" gradientUnits="userSpaceOnUse"><stop offset=".123" stop-color="#21d789"/><stop offset=".132" stop-color="#27d788"/><stop offset=".216" stop-color="#59d87b"/><stop offset=".303" stop-color="#85d970"/><stop offset=".394" stop-color="#abda67"/><stop offset=".487" stop-color="#cadb5f"/><stop offset=".585" stop-color="#e1db59"/><stop offset=".688" stop-color="#f2dc55"/><stop offset=".802" stop-color="#fcdc53"/><stop offset=".946" stop-color="#ffdc52"/></linearGradient></defs><g><g id="_Group_" data-name="&lt;Group&gt;"><path id="_Compound_Path_" d="M184.8349,1.998h33.17189l36.76869,59.14858L291.54418,1.998h33.17189V141.87918H294.142V50.55607l-39.36652,59.74925h-.799L215.009,51.15674v90.72243H184.8349Z" data-name="&lt;Compound Path&gt;"/><path id="_Compound_Path_2" d="M334.69863,1.998H391.85c33.37184,0,53.5546,19.78365,53.5546,48.359v.39831c0,32.37368-25.17845,49.15878-56.55153,49.15878H365.47265v41.96517h-30.774Zm55.15344,70.53887c15.387,0,24.37943-9.19157,24.37943-21.18093V50.956c0-13.78817-9.59229-21.18254-24.9793-21.18254H365.47265V72.53683Z" data-name="&lt;Compound Path&gt;"/><path id="_Compound_Path_3" d="M443.914,121.49646l18.18479-21.78161c12.58922,10.39131,25.77832,16.98586,41.7652,16.98586,12.58842,0,20.18195-4.9949,20.18195-13.1891v-.39991c0-7.79429-4.79574-11.79021-28.17539-17.78408-28.17619-7.19522-46.361-14.9879-46.361-42.76339v-.40152C449.5096,16.7851,469.8923,0,498.4676,0c20.38271,0,37.76848,6.39379,51.95655,17.78408l-15.98688,23.1805c-12.38927-8.59251-24.57938-13.78817-36.368-13.78817-11.791,0-17.98564,5.39481-17.98564,12.18851v.40152c0,9.19157,5.99468,12.18851,30.17415,18.38315,28.37615,7.39438,44.363,17.58654,44.363,41.96517v.39991c0,27.77548-21.18253,43.36245-51.35748,43.36245A89.01108,89.01108,0,0,1,443.914,121.49646Z" data-name="&lt;Compound Path&gt;"/></g><g><polygon fill="url(#linear-gradient)" points="0 141.708 139.999 141.708 69.688 71.519 0 1.709 0 141.708"/><polygon id="_Path_" fill="url(#linear-gradient-2)" points="139.999 141.708 69.688 71.519 139.999 1.708 139.999 141.708" data-name="&lt;Path&gt;"/><polygon id="_Path_2" fill="url(#linear-gradient-3)" points="101.767 103.475 69.688 71.519 139.999 1.708 101.767 103.475" data-name="&lt;Path&gt;"/></g></g></svg>